<svg id="Layer_1" enable-background="new 0 0 512 512" height="512" viewBox="0 0 512 512" width="512" xmlns="http://www.w3.org/2000/svg"><g><path d="m256.004 128.536c-70.285 0-127.467 57.18-127.467 127.464s57.182 127.464 127.467 127.464c70.286 0 127.467-57.18 127.467-127.464s-57.181-127.464-127.467-127.464zm0 224.928c-53.743 0-97.467-43.722-97.467-97.464s43.724-97.464 97.467-97.464c53.744 0 97.467 43.722 97.467 97.464s-43.723 97.464-97.467 97.464z"/><path d="m376.5 0h-241c-74.715 0-135.5 60.785-135.5 135.5v241c0 74.715 60.785 135.5 135.5 135.5h241c74.715 0 135.5-60.785 135.5-135.5v-241c0-74.715-60.785-135.5-135.5-135.5zm105.5 376.5c0 58.173-47.327 105.5-105.5 105.5h-241c-58.173 0-105.5-47.327-105.5-105.5v-241c0-58.173 47.327-105.5 105.5-105.5h241c58.173 0 105.5 47.327 105.5 105.5z"/><path d="m398.6 98.4c-3.95 0-7.81 1.6-10.6 4.4-2.8 2.79-4.4 6.65-4.4 10.6s1.601 7.82 4.4 10.61c2.79 2.79 6.649 4.39 10.6 4.39s7.82-1.6 10.61-4.39 4.39-6.66 4.39-10.61c0-3.94-1.6-7.81-4.39-10.6-2.79-2.8-6.66-4.4-10.61-4.4z"/></g></svg>