<svg id="Layer_1" height="512" width="512" xmlns="http://www.w3.org/2000/svg"><path d="M256.004 128.536c-70.285 0-127.467 57.18-127.467 127.464s57.182 127.464 127.467 127.464c70.286 0 127.467-57.18 127.467-127.464S326.29 128.536 256.004 128.536zm0 224.928c-53.743 0-97.467-43.722-97.467-97.464s43.724-97.464 97.467-97.464c53.744 0 97.467 43.722 97.467 97.464s-43.723 97.464-97.467 97.464z"/><path d="M376.5 0h-241C60.785 0 0 60.785 0 135.5v241C0 451.215 60.785 512 135.5 512h241c74.715 0 135.5-60.785 135.5-135.5v-241C512 60.785 451.215 0 376.5 0zM482 376.5c0 58.173-47.327 105.5-105.5 105.5h-241C77.327 482 30 434.673 30 376.5v-241C30 77.327 77.327 30 135.5 30h241C434.673 30 482 77.327 482 135.5z"/><path d="M398.6 98.4c-3.95 0-7.81 1.6-10.6 4.4-2.8 2.79-4.4 6.65-4.4 10.6s1.601 7.82 4.4 10.61c2.79 2.79 6.649 4.39 10.6 4.39s7.82-1.6 10.61-4.39 4.39-6.66 4.39-10.61c0-3.94-1.6-7.81-4.39-10.6-2.79-2.8-6.66-4.4-10.61-4.4z"/></svg>