<svg version="1.1" id="Capa_1" xmlns="http://www.w3.org/2000/svg" x="0" y="0" viewBox="0 0 408.726 408.726" xml:space="preserve"><path d="M335.372 21.318c-48.44-19.748-99.087-2.463-131.011 44.011-31.938-46.474-82.6-63.759-131.015-44.011C27.937 39.837-13.146 93.817 3.965 168.574 19.371 235.928 72.44 293.896 114.24 330.663c45.066 39.634 87.158 63.882 87.578 64.123a5.116 5.116 0 002.545.676c.881 0 1.756-.225 2.545-.676.42-.241 42.511-24.489 87.572-64.118 41.8-36.767 94.868-94.73 110.285-162.089 17.105-74.762-23.983-128.742-69.393-147.261zm59.413 144.973c-26.45 115.558-169.487 205.486-190.418 218.097-20.931-12.606-163.968-102.473-190.418-218.097C-1.826 97.36 35.683 47.737 77.212 30.8c12.59-5.135 24.643-7.388 36.019-7.388 38.917 0 69.857 26.378 86.769 53.996 1.859 3.036 6.866 3.036 8.735 0 21.851-35.687 67.117-69.31 122.772-46.608 41.533 16.937 79.047 66.56 63.278 135.491z"/></svg>