<svg version="1.1" id="Capa_1" xmlns="http://www.w3.org/2000/svg" x="0" y="0" viewBox="0 0 513.323 513.323" xml:space="preserve"><path d="M256.661 257.323c-135.275 0-245.333 110.059-245.333 245.333 0 5.888 4.779 10.667 10.667 10.667s10.667-4.779 10.667-10.667c0-123.52 100.48-224 224-224s224 100.48 224 224c0 5.888 4.779 10.667 10.667 10.667s10.667-4.779 10.667-10.667c-.001-135.296-110.06-245.333-245.335-245.333zm0-257.323c-64.683 0-117.333 52.629-117.333 117.333s52.651 117.333 117.333 117.333 117.333-52.629 117.333-117.333S321.344 0 256.661 0zm0 213.333c-52.928 0-96-43.072-96-96s43.072-96 96-96 96 43.072 96 96-43.072 96-96 96z"/></svg>