<?xml version="1.0" encoding="iso-8859-1"?>
<!-- Generator: Adobe Illustrator 19.0.0, SVG Export Plug-In . SVG Version: 6.00 Build 0)  -->
<svg version="1.1" id="Capa_1" xmlns="http://www.w3.org/2000/svg" xmlns:xlink="http://www.w3.org/1999/xlink" x="0px" y="0px"
	 viewBox="0 0 408.726 408.726" style="enable-background:new 0 0 408.726 408.726;" xml:space="preserve">
<g>
	<g>
		<path d="M335.372,21.318c-48.44-19.748-99.087-2.463-131.011,44.011C172.423,18.855,121.761,1.57,73.346,21.318
			C27.937,39.837-13.146,93.817,3.965,168.574c15.406,67.354,68.475,125.322,110.275,162.089
			c45.066,39.634,87.158,63.882,87.578,64.123c0.789,0.451,1.664,0.676,2.545,0.676c0.881,0,1.756-0.225,2.545-0.676
			c0.42-0.241,42.511-24.489,87.572-64.118c41.8-36.767,94.868-94.73,110.285-162.089C421.87,93.817,380.782,39.837,335.372,21.318z
			 M394.785,166.291c-26.45,115.558-169.487,205.486-190.418,218.097C183.436,371.782,40.399,281.915,13.949,166.291
			C-1.826,97.36,35.683,47.737,77.212,30.8c12.59-5.135,24.643-7.388,36.019-7.388c38.917,0,69.857,26.378,86.769,53.996
			c1.859,3.036,6.866,3.036,8.735,0C230.586,41.721,275.852,8.098,331.507,30.8C373.04,47.737,410.554,97.36,394.785,166.291z"/>
	</g>
</g>
<g>
</g>
<g>
</g>
<g>
</g>
<g>
</g>
<g>
</g>
<g>
</g>
<g>
</g>
<g>
</g>
<g>
</g>
<g>
</g>
<g>
</g>
<g>
</g>
<g>
</g>
<g>
</g>
<g>
</g>
</svg>
